# xmcd CD database file
#
# Track frame offsets:
#	150
#	19048
#	30447
#	46127
#	59187
#	76622
#	95266
#	110075
#	128078
#	139919
#	155038
#	170780
#	187188
#	200471
#	216544
#	229204
#
# Disc length: 3251 seconds
#
# Revision: 0
# Processed by: cddbd v1.5.2PL0 Copyright (c) Steve Scherf et al.
# Submitted via: ACXtractor (MTCDDB.DLL V2003.07.15)
#
DISCID=e90cb110
DTITLE=Rex Dallas - The Bush Ballad Selection
DYEAR=2010
DGENRE=Country
TTITLE0=Born to the Saddle
TTITLE1=Gumtrees are Falling
TTITLE2=There's a Mountain
TTITLE3=The Hut
TTITLE4=Old Watson
TTITLE5=Coloured Hills
TTITLE6=Greasy George
TTITLE7=The Letter
TTITLE8=Australian Bush Call
TTITLE9=Sunrise of the Outback
TTITLE10=Red Morning Sun
TTITLE11=Mustering Again
TTITLE12=The Flea
TTITLE13=Dodds Hotel
TTITLE14=Trumby's Mate
TTITLE15=I Love The Old Bush Ballads
EXTD=ID3G:   2 YEAR: 2010
EXTT0=
EXTT1=
EXTT2=
EXTT3=
EXTT4=
EXTT5=
EXTT6=
EXTT7=
EXTT8=
EXTT9=
EXTT10=
EXTT11=
EXTT12=
EXTT13=
EXTT14=
EXTT15=
PLAYORDER=
